<mxfile host="app.diagrams.net" modified="2023-10-24T19:42:17.016Z" agent="Mozilla/5.0 (Macintosh; Intel Mac OS X 10_15_7) AppleWebKit/537.36 (KHTML, like Gecko) Chrome/115.0.0.0 Safari/537.36" version="21.6.1" etag="b-RUbJBnePeHF3-WGThO" type="github">
  <diagram name="Page-1" id="1gn-ywY7lWtOdrrArojW">
    <mxGraphModel>
      <root>
        <mxCell id="0" />
        <mxCell id="1" parent="0" />
      </root>
    </mxGraphModel>
  </diagram>
</mxfile>
